<?xml version="1.0" encoding="UTF-8" standalone="no"?>
<svg
   xmlns:dc="http://purl.org/dc/elements/1.1/"
   xmlns:cc="http://creativecommons.org/ns#"
   xmlns:rdf="http://www.w3.org/1999/02/22-rdf-syntax-ns#"
   xmlns:svg="http://www.w3.org/2000/svg"
   xmlns="http://www.w3.org/2000/svg"
   xmlns:sodipodi="http://sodipodi.sourceforge.net/DTD/sodipodi-0.dtd"
   xmlns:inkscape="http://www.inkscape.org/namespaces/inkscape"
   version="1.1"
   id="svg2"
   xml:space="preserve"
   width="1122.52"
   height="793.70667"
   viewBox="0 0 1122.52 793.70667"
   sodipodi:docname="SaskaVet.eps"><metadata
     id="metadata8"><rdf:RDF><cc:Work
         rdf:about=""><dc:format>image/svg+xml</dc:format><dc:type
           rdf:resource="http://purl.org/dc/dcmitype/StillImage" /></cc:Work></rdf:RDF></metadata><defs
     id="defs6" /><sodipodi:namedview
     pagecolor="#ffffff"
     bordercolor="#666666"
     borderopacity="1"
     objecttolerance="10"
     gridtolerance="10"
     guidetolerance="10"
     inkscape:pageopacity="0"
     inkscape:pageshadow="2"
     inkscape:window-width="640"
     inkscape:window-height="480"
     id="namedview4" /><g
     id="g10"
     inkscape:groupmode="layer"
     inkscape:label="ink_ext_XXXXXX"
     transform="matrix(1.3333333,0,0,-1.3333333,0,793.70667)"><g
       id="g12"
       transform="scale(0.1)"><path
         d="m 6325.53,3267.58 v 37.52 H 4788.49 c -44.37,-0.76 -107.26,-0.74 -114.58,-0.76 -62.14,-0.2 -44.58,-2.56 -184.99,12.3 -77.89,13.32 -124.62,43.38 -159.57,107.06 -10.53,19.14 -6.04,39.07 -10.92,58.44 -28.84,114.28 -88.74,210.44 -162.76,300.79 -98.47,120.19 -185.62,248.49 -266,381.87 -28.68,47.59 -46.34,87.81 -31.35,143.62 11.41,42.5 -14.22,81.27 -29.97,125 -20.26,-24.72 -20.06,-53.46 -38.37,-72.47 -12.38,15.81 -10.37,39.26 -35.77,56.75 0,-23.02 0.22,-40.81 -0.04,-58.57 -0.53,-34.75 -13.69,-56.85 -52.63,-58.9 -23.36,-1.19 -43.16,-6.99 -56.36,-34.25 -8.42,-17.43 -38.25,-19.34 -61.02,-22.37 -45.37,-6.01 -48.87,-11.56 -30.29,-52.38 6.1,-13.49 5.18,-26.03 5.61,-39.16 1.51,-45.94 32.57,-77.49 78.44,-78.11 8.77,-0.13 21.31,-4.59 25.51,6.03 12.4,31.39 33.95,13.93 50.32,8.71 20.65,-6.6 27.98,-22.37 31.64,-46.72 3.53,-17.48 3.05,-25.55 0.03,-41.7 0.31,0.33 -1.05,-4.26 -0.85,-4.28 3.45,-0.26 17.02,-57.48 23.81,-67.18 0.96,-1.38 4.72,-1.57 6.52,-1.7 0.75,-0.05 2.15,3.11 2.55,4.54 3.23,11.6 5.38,22.56 9.07,34.01 1.56,4.84 3.31,9 6.52,13.04 3.12,3.93 8.87,5.16 10.77,0.85 6.74,-15.28 12.84,-31.22 18.14,-47.05 0.74,-2.2 1.33,-4.73 2.27,-6.24 0.94,-1.5 3.06,-2.64 5.39,-3.68 21.54,-9.63 36.68,-25.79 43.37,-48.76 1.2,-4.14 1.94,-7.47 3.11,-11.62 2.35,-8.31 5.23,-16.69 9.08,-24.38 1.92,-3.84 4.08,-7.25 6.8,-10.77 1.28,-1.67 1.63,-3.7 2.55,-5.39 2.76,-5.05 3.7,-8.26 -0.57,-14.17 -0.47,-0.66 -0.37,-3.6 -0.28,-4.54 0.71,-7.35 -3.09,-12.93 -7.94,-17.85 -3.77,-3.83 -6.39,-7.38 -11.05,-9.36 -8.94,-3.79 -17.19,0.02 -25.23,4.25 -1.43,0.75 -3.24,2.08 -4.82,2.84 -1.58,0.75 -3.63,0.66 -4.82,0.28 -3.65,-1.16 -7.93,-1.68 -11.62,-2.27 -11.08,-1.74 -21.69,-0.97 -32.88,-0.85 -6.3,0.07 -8.58,-5.65 -9.36,-10.77 -0.39,-2.58 0.09,-5.92 0.57,-8.5 1.19,-6.42 2.8,-11.96 4.53,-18.14 3.47,-12.38 8.05,-24.68 14.18,-36 3.06,-5.66 7.48,-11.94 11.34,-17.29 10.35,-14.4 33.86,-36.02 42.8,-51.31 1.06,-1.82 2.4,-2.81 3.17,-4.36 v 0 0 c 0.81,0.27 20.79,-35.12 23.04,-41.99 3.99,-12.21 10,-26.68 4.82,-37.45 -2.75,-5.7 -2.83,-10.24 -1.43,-15.7 1.17,-4.54 2.21,-9.15 2.8,-13.8 0.5,-3.95 1.78,-5.08 5.64,-3.4 14.91,6.47 30.78,9.91 46.7,7.68 18.19,-2.55 36.5,-6.79 50.84,-19.62 15.6,-13.96 31.78,-27.56 45.53,-43.23 8.9,-10.14 15.96,-23.08 19.96,-35.96 3.17,-10.18 8.02,-21.92 1.39,-33.51 -1.52,-2.67 -0.22,-6.96 -0.22,-12.35 2.72,2.25 3.72,3.21 4.85,4 4.42,3.03 6.79,2.05 6.91,-3.18 0.58,-23.61 -7.53,-42.57 -28.13,-55.95 -6.06,-3.95 -12.9,-7.57 -16.16,-16.15 -1.12,-2.92 -3.66,-5.63 -6.71,-7.92 h -163.59 -0.01 -86.79 v 0 H 1899.22 v -37.52 z m -1957.94,37.52 h -114.63 c -0.3,5.11 -1.08,11.01 -2.61,18.62 -2.51,12.41 8.45,13.59 14.52,15.11 15.84,4 28.97,30.26 47.95,9.57 17.3,-18.85 35.67,-32.79 54.77,-43.3"
         style="fill:#2b1f12;fill-opacity:1;fill-rule:nonzero;stroke:none"
         id="path14" /><path
         d="m 4833.34,2519.26 h 22.73 l 171.29,470.04 c 10.28,29.23 21.78,49.52 34.5,60.89 12.71,11.36 30.98,17.58 54.8,18.67 v 26.79 h -164.8 v -35.72 l 62.51,3.25 c -5.41,-10.84 -13.27,-30.85 -23.54,-60.08 l -18.67,-51.95 -71.44,-200.52 -10.55,-29.22 -30.04,-86.87 h -1.63 c -8.66,23.27 -23.54,58.98 -44.64,107.16 l -21.11,49.52 c -9.74,22.73 -20.17,47.9 -31.26,75.5 -11.1,27.6 -19.35,48.16 -24.76,61.7 l -21.1,51.95 c -7.59,18.4 -11.37,33.82 -11.37,46.28 0,12.98 4.19,22.85 12.58,29.63 8.39,6.76 21.52,10.68 39.38,11.77 l 0.81,0.81 v 26.79 h -188.34 v -35.72 l 45.46,1.62 c 3.78,-27.6 15.42,-64.41 34.91,-110.4 z m 313.36,8.12 h 418.89 l 4.87,158.31 h -27.6 c 0,-46.01 -10.02,-78.34 -30.04,-97.02 -20.03,-18.67 -48.98,-28.28 -86.86,-28.81 l -155.06,-2.44 c 1.63,14.07 2.44,35.17 2.44,63.32 v 185.91 l 59.26,2.43 25.17,0.81 c 17.86,0 31.79,-1.76 41.81,-5.27 10,-3.53 17.45,-10.56 22.32,-21.11 4.87,-10.55 7.31,-25.85 7.31,-45.87 H 5456 v 170.48 h -35.72 l 5.68,-69.81 -152.62,0.81 v 129.89 c 0,25.98 1.08,45.05 3.25,57.23 2.15,12.18 7.57,21.64 16.23,28.41 8.65,6.76 22.73,10.42 42.22,10.96 l 69.81,1.63 c 34.63,1.07 61.56,-6.5 80.78,-22.73 19.2,-16.24 28.82,-46.56 28.82,-90.93 h 26.79 l -4.06,142.07 H 5146.7 v -35.72 l 58.45,3.25 c -1.63,-16.24 -2.44,-35.72 -2.44,-58.45 v -350.7 c 0,-27.61 -0.54,-46.96 -1.62,-58.05 -1.09,-11.1 -5.68,-20.7 -13.8,-28.82 -8.12,-8.12 -21.66,-12.45 -40.59,-12.99 z m 629.14,0 h 190.78 v 35.72 l -67.38,-3.24 c 1.62,14.06 2.44,35.44 2.44,64.13 l 0.81,442.43 h 69 c 27.6,0 48.84,-5.01 63.73,-15.01 14.88,-10.02 25.43,-25.17 31.66,-45.47 6.21,-20.29 9.6,-47.49 10.15,-81.58 h 30.84 l -4.87,171.29 h -473.28 l -4.87,-171.29 h 30.03 c 0,48.71 7.17,84.29 21.52,106.75 14.33,22.45 38.28,33.69 71.84,33.69 l 83.62,0.81 -0.81,-411.58 v -25.17 c 0,-24.9 -3.39,-43.31 -10.15,-55.2 -6.77,-11.91 -21.79,-18.41 -45.06,-19.49 v -26.79"
         style="fill:#2b1f12;fill-opacity:1;fill-rule:nonzero;stroke:none"
         id="path16" /><path
         d="m 2346.79,2514.39 c 39.5,0 73.6,6.5 102.29,19.49 28.68,12.99 50.46,31.11 65.35,54.39 14.88,23.26 22.33,50.05 22.33,80.37 0,31.92 -7.86,58.85 -23.55,80.77 -15.7,21.92 -34.78,39.64 -57.23,53.18 -22.46,13.52 -52.1,28.68 -88.89,45.46 -32.48,15.14 -57.64,27.87 -75.5,38.15 -17.86,10.28 -33.02,23.27 -45.46,38.97 -12.46,15.69 -18.67,34.36 -18.67,56.01 0,27.06 9.19,49.65 27.6,67.79 18.39,18.13 43.83,27.2 76.31,27.2 44.37,0 78.87,-14.76 103.5,-44.25 24.62,-29.5 38.28,-65.63 41,-108.37 h 29.22 v 178.59 h -41.4 l 3.25,-34.9 c -20.57,15.14 -43.17,25.83 -67.79,32.06 -24.63,6.22 -49.11,9.34 -73.47,9.34 -40.59,0 -73.2,-7.59 -97.82,-22.73 -24.63,-15.16 -41.95,-33.57 -51.95,-55.2 -10.03,-21.66 -15.02,-43.31 -15.02,-64.95 0,-31.39 7.57,-57.78 22.73,-79.15 15.14,-21.39 33.41,-38.56 54.79,-51.55 21.38,-12.99 50.2,-28.15 86.46,-45.46 31.93,-14.61 57.24,-27.48 75.91,-38.56 18.67,-11.1 34.36,-24.9 47.08,-41.41 12.71,-16.51 19.08,-36.4 19.08,-59.66 0,-31.4 -11.24,-56.16 -33.69,-74.28 -22.46,-18.14 -50.21,-27.2 -83.21,-27.2 -44.93,0 -81.99,12.58 -111.22,37.75 -29.22,25.17 -45.19,61.01 -47.9,107.56 h -31.66 l 4.87,-172.91 h 42.22 l -4.06,34.91 c 19.48,-13.54 42.07,-23.83 67.79,-30.85 25.69,-7.03 51.27,-10.56 76.71,-10.56 z m 220.8,12.99 h 151.81 v 35.72 l -63.32,-3.24 c 8.12,19.48 14.88,38.15 20.29,56.01 10.82,35.72 20.3,64.67 28.42,86.86 l 211.07,4.87 28.41,-76.31 c 5.41,-15.15 8.12,-27.88 8.12,-38.15 0,-25.45 -15.97,-38.43 -47.9,-38.97 v -26.79 h 185.91 v 35.72 l -55.2,-3.24 c 0.53,10.82 -1.36,24.76 -5.69,41.8 -4.34,17.05 -9.47,32.88 -15.42,47.49 l -181.04,461.92 h -19.48 l -167.23,-455.42 -8.12,-22.73 c -7.04,-20.03 -13.13,-35.05 -18.27,-45.06 -5.15,-10.02 -11.77,-18.14 -19.89,-24.35 -8.11,-6.23 -18.95,-9.34 -32.47,-9.34 z m 149.38,210.26 13.8,39.78 43.83,123.4 34.1,91.73 h 1.62 l 36.54,-99.85 57.63,-155.06 z m 598.29,-223.25 c 39.5,0 73.6,6.5 102.29,19.49 28.68,12.99 50.46,31.11 65.35,54.39 14.88,23.26 22.33,50.05 22.33,80.37 0,31.92 -7.86,58.85 -23.55,80.77 -15.7,21.92 -34.78,39.64 -57.23,53.18 -22.46,13.52 -52.09,28.68 -88.89,45.46 -32.47,15.14 -57.64,27.87 -75.5,38.15 -17.86,10.28 -33.02,23.27 -45.46,38.97 -12.46,15.69 -18.67,34.36 -18.67,56.01 0,27.06 9.19,49.65 27.6,67.79 18.39,18.13 43.84,27.2 76.31,27.2 44.37,0 78.87,-14.76 103.5,-44.25 24.62,-29.5 38.29,-65.63 41,-108.37 h 29.23 v 178.59 h -41.41 l 3.25,-34.9 c -20.57,15.14 -43.16,25.83 -67.79,32.06 -24.63,6.22 -49.11,9.34 -73.46,9.34 -40.59,0 -73.21,-7.59 -97.83,-22.73 -24.63,-15.16 -41.95,-33.57 -51.95,-55.2 -10.02,-21.66 -15.02,-43.31 -15.02,-64.95 0,-31.39 7.57,-57.78 22.73,-79.15 15.14,-21.39 33.41,-38.56 54.8,-51.55 21.37,-12.99 50.19,-28.15 86.45,-45.46 31.93,-14.61 57.24,-27.48 75.91,-38.56 18.67,-11.1 34.36,-24.9 47.08,-41.41 12.71,-16.51 19.08,-36.4 19.08,-59.66 0,-31.4 -11.24,-56.16 -33.69,-74.28 -22.46,-18.14 -50.21,-27.2 -83.21,-27.2 -44.93,0 -81.99,12.58 -111.22,37.75 -29.22,25.17 -45.19,61.01 -47.89,107.56 h -31.67 l 4.88,-172.91 h 42.21 l -4.06,34.91 c 19.48,-13.54 42.08,-23.83 67.79,-30.85 25.7,-7.03 51.27,-10.56 76.71,-10.56 z m 270.32,12.99 h 182.66 v 35.72 l -58.45,-3.24 c 1.62,14.06 2.44,35.44 2.44,64.13 v 179.41 l 39.78,0.81 c 8.65,-5.42 17.72,-13.53 27.19,-24.35 9.46,-10.84 20.7,-24.64 33.69,-41.41 l 97.42,-131.51 c 40.59,-53.05 67.91,-79.56 81.99,-79.56 h 99.04 v 26.79 c -13.53,0 -25.16,1.89 -34.91,5.69 -9.74,3.78 -21.24,11.89 -34.5,24.35 -13.27,12.44 -29.91,31.93 -49.92,58.45 l -90.93,120.96 c -2.17,2.7 -6.63,8.52 -13.39,17.45 -6.78,8.93 -14.49,17.86 -23.14,26.79 -8.66,8.93 -18.95,17.18 -30.85,24.76 l 79.56,126.65 c 17.86,28.68 34.91,50.59 51.14,65.75 16.24,15.15 32.88,25.7 49.93,31.66 17.05,5.95 38.02,10.01 62.92,12.18 v 26.79 h -174.54 v -33.28 l 49.52,1.62 c -18.41,-15.16 -37.63,-37.89 -57.64,-68.19 l -101.48,-159.93 h -60.88 v 133.14 c 0,27.6 0.53,46.94 1.62,58.04 1.08,11.09 5.68,20.7 13.8,28.82 8.12,8.12 21.64,12.44 40.59,12.99 v 26.79 h -182.66 v -35.72 l 58.45,3.25 c -1.62,-16.24 -2.43,-35.72 -2.43,-58.45 v -350.7 c 0,-27.61 -0.55,-46.96 -1.62,-58.05 -1.1,-11.1 -5.69,-20.7 -13.81,-28.82 -8.11,-8.12 -21.65,-12.45 -40.59,-12.99 z m 504.95,0 h 151.81 v 35.72 l -63.32,-3.24 c 8.11,19.48 14.87,38.15 20.29,56.01 10.82,35.72 20.3,64.67 28.41,86.86 l 211.08,4.87 28.41,-76.31 c 5.4,-15.15 8.12,-27.88 8.12,-38.15 0,-25.45 -15.97,-38.43 -47.9,-38.97 v -26.79 h 185.9 v 35.72 l -55.2,-3.24 c 0.53,10.82 -1.36,24.76 -5.68,41.8 -4.34,17.05 -9.48,32.88 -15.43,47.49 l -181.03,461.92 h -19.48 l -167.24,-455.42 -8.11,-22.73 c -7.04,-20.03 -13.13,-35.05 -18.27,-45.06 -5.15,-10.02 -11.77,-18.14 -19.89,-24.35 -8.12,-6.23 -18.95,-9.34 -32.47,-9.34 z m 149.37,210.26 13.8,39.78 43.84,123.4 34.1,91.73 h 1.62 l 36.53,-99.85 57.64,-155.06 H 4239.9"
         style="fill:#0a8c8a;fill-opacity:1;fill-rule:nonzero;stroke:none"
         id="path18" /><path
         d="m 1899.21,2389.85 v -37.52 h 4426.32 v 37.52 H 1899.21"
         style="fill:#2b1f12;fill-opacity:1;fill-rule:nonzero;stroke:none"
         id="path20" /><path
         d="m 2437.24,2047.52 c 7.98,0 14.77,2.83 20.35,8.5 5.59,5.67 8.38,12.49 8.38,20.47 0,7.98 -2.79,14.73 -8.38,20.23 -5.58,5.51 -12.37,8.26 -20.35,8.26 -7.98,0 -14.8,-2.75 -20.47,-8.26 -5.67,-5.5 -8.5,-12.25 -8.5,-20.23 0,-7.98 2.83,-14.8 8.5,-20.47 5.67,-5.67 12.49,-8.5 20.47,-8.5 z m 339.5,-35.91 h 17.48 c 2.08,0 3.43,0.96 4.07,2.87 l 51.24,160.66 c 0.8,2.71 -0.24,4.07 -3.11,4.07 h -16.52 c -0.96,0 -1.84,-0.28 -2.64,-0.84 -0.8,-0.56 -1.28,-1.32 -1.43,-2.28 l -39.03,-130.48 c -0.16,-0.64 -0.4,-0.96 -0.72,-0.96 -0.32,0 -0.56,0.32 -0.72,0.96 l -39.26,130.48 c -0.16,0.96 -0.64,1.72 -1.44,2.28 -0.8,0.56 -1.67,0.84 -2.63,0.84 h -17 c -2.24,0 -3.35,-0.88 -3.35,-2.64 0,-0.64 0.08,-1.12 0.24,-1.43 l 50.75,-160.66 c 0.64,-1.91 2,-2.87 4.07,-2.87 z m 257.15,151.32 v 12.68 c 0,1.12 -0.32,2 -0.96,2.64 -0.64,0.63 -1.52,0.96 -2.63,0.96 h -104.15 c -1.12,0 -2,-0.33 -2.63,-0.96 -0.64,-0.64 -0.96,-1.52 -0.96,-2.64 V 2015.2 c 0,-1.12 0.32,-2 0.96,-2.63 0.63,-0.64 1.51,-0.96 2.63,-0.96 h 104.15 c 1.11,0 1.99,0.32 2.63,0.96 0.64,0.63 0.96,1.51 0.96,2.63 v 12.69 c 0,1.11 -0.32,1.99 -0.96,2.63 -0.64,0.64 -1.52,0.96 -2.63,0.96 h -83.56 c -0.8,0 -1.2,0.4 -1.2,1.2 v 52.19 c 0,0.8 0.4,1.2 1.2,1.2 h 56.98 c 1.12,0 2,0.32 2.64,0.96 0.63,0.63 0.95,1.51 0.95,2.63 v 12.69 c 0,1.12 -0.32,1.99 -0.95,2.63 -0.64,0.64 -1.52,0.96 -2.64,0.96 h -56.98 c -0.8,0 -1.2,0.4 -1.2,1.2 v 51 c 0,0.79 0.4,1.19 1.2,1.19 h 83.56 c 1.11,0 1.99,0.32 2.63,0.96 0.64,0.64 0.96,1.52 0.96,2.64 z m 185.07,16.28 h -112.29 c -1.11,0 -1.99,-0.33 -2.63,-0.96 -0.64,-0.64 -0.96,-1.52 -0.96,-2.64 v -12.92 c 0,-1.12 0.32,-2 0.96,-2.64 0.64,-0.64 1.52,-0.96 2.63,-0.96 h 42.38 c 0.8,0 1.2,-0.4 1.2,-1.19 v -142.7 c 0,-1.12 0.32,-2 0.96,-2.63 0.63,-0.64 1.51,-0.96 2.63,-0.96 h 15.8 c 1.12,0 2,0.32 2.64,0.96 0.63,0.63 0.95,1.51 0.95,2.63 v 142.7 c 0,0.79 0.4,1.19 1.2,1.19 h 44.53 c 1.12,0 2,0.32 2.64,0.96 0.63,0.64 0.96,1.52 0.96,2.64 v 12.92 c 0,1.12 -0.33,2 -0.96,2.64 -0.64,0.63 -1.52,0.96 -2.64,0.96 z m 191.3,-16.28 v 12.68 c 0,1.12 -0.32,2 -0.96,2.64 -0.63,0.63 -1.51,0.96 -2.63,0.96 h -104.15 c -1.12,0 -2,-0.33 -2.63,-0.96 -0.64,-0.64 -0.96,-1.52 -0.96,-2.64 V 2015.2 c 0,-1.12 0.32,-2 0.96,-2.63 0.63,-0.64 1.51,-0.96 2.63,-0.96 h 104.15 c 1.12,0 2,0.32 2.63,0.96 0.64,0.63 0.96,1.51 0.96,2.63 v 12.69 c 0,1.11 -0.32,1.99 -0.96,2.63 -0.63,0.64 -1.51,0.96 -2.63,0.96 h -83.56 c -0.8,0 -1.2,0.4 -1.2,1.2 v 52.19 c 0,0.8 0.4,1.2 1.2,1.2 h 56.98 c 1.12,0 2,0.32 2.64,0.96 0.63,0.63 0.96,1.51 0.96,2.63 v 12.69 c 0,1.12 -0.33,1.99 -0.96,2.63 -0.64,0.64 -1.52,0.96 -2.64,0.96 h -56.98 c -0.8,0 -1.2,0.4 -1.2,1.2 v 51 c 0,0.79 0.4,1.19 1.2,1.19 h 83.56 c 1.12,0 2,0.32 2.63,0.96 0.64,0.64 0.96,1.52 0.96,2.64 z m 176.22,-151.32 h 16.28 c 2.07,0 3.11,0.8 3.11,2.39 l -0.48,1.92 -34,70.63 c -0.16,0.63 0.08,1.11 0.72,1.44 10.06,2.71 18.04,7.93 23.94,15.68 5.91,7.74 8.86,17.12 8.86,28.13 0,9.42 -1.99,17.72 -5.98,24.9 -3.99,7.18 -9.62,12.77 -16.88,16.76 -7.27,3.99 -15.68,5.99 -25.26,5.99 h -63.21 c -1.12,0 -2,-0.33 -2.63,-0.96 -0.64,-0.64 -0.96,-1.52 -0.96,-2.64 V 2015.2 c 0,-1.12 0.32,-2 0.96,-2.63 0.63,-0.64 1.51,-0.96 2.63,-0.96 h 15.8 c 1.12,0 2,0.32 2.64,0.96 0.63,0.63 0.95,1.51 0.95,2.63 v 69.67 c 0,0.8 0.4,1.2 1.2,1.2 h 33.76 c 0.64,0 1.12,-0.32 1.44,-0.96 l 33.04,-70.87 c 0.79,-1.76 2.15,-2.63 4.07,-2.63 z m -72.31,147.96 h 39.75 c 8.45,0 15.24,-2.55 20.35,-7.66 5.1,-5.11 7.66,-11.89 7.66,-20.35 0,-8.14 -2.6,-14.76 -7.78,-19.87 -5.19,-5.11 -11.94,-7.66 -20.23,-7.66 h -39.75 c -0.8,0 -1.2,0.39 -1.2,1.19 v 53.16 c 0,0.79 0.4,1.19 1.2,1.19 z m 174.06,-147.96 h 15.8 c 1.12,0 2,0.32 2.64,0.96 0.63,0.63 0.96,1.51 0.96,2.63 v 160.41 c 0,1.12 -0.33,2 -0.96,2.64 -0.64,0.63 -1.52,0.96 -2.64,0.96 h -15.8 c -1.12,0 -2,-0.33 -2.63,-0.96 -0.64,-0.64 -0.96,-1.52 -0.96,-2.64 V 2015.2 c 0,-1.12 0.32,-2 0.96,-2.63 0.63,-0.64 1.51,-0.96 2.63,-0.96 z m 110.14,0 h 15.8 c 1.11,0 1.99,0.32 2.63,0.96 0.64,0.63 0.96,1.51 0.96,2.63 l -0.24,117.56 c 0,0.63 0.16,0.99 0.48,1.08 0.32,0.07 0.63,-0.12 0.96,-0.6 L 3892.22,2014 c 0.96,-1.59 2.4,-2.39 4.31,-2.39 h 15.56 c 1.12,0 2,0.32 2.64,0.96 0.63,0.63 0.95,1.51 0.95,2.63 v 160.41 c 0,1.12 -0.32,2 -0.95,2.64 -0.64,0.63 -1.52,0.96 -2.64,0.96 h -15.8 c -1.12,0 -2,-0.33 -2.63,-0.96 -0.64,-0.64 -0.96,-1.52 -0.96,-2.64 v -116.83 c 0,-0.64 -0.16,-1 -0.48,-1.08 -0.32,-0.08 -0.64,0.12 -0.96,0.6 L 3818,2176.81 c -0.96,1.6 -2.4,2.4 -4.31,2.4 h -15.32 c -1.12,0 -2,-0.33 -2.64,-0.96 -0.64,-0.64 -0.96,-1.52 -0.96,-2.64 V 2015.2 c 0,-1.12 0.32,-2 0.96,-2.63 0.64,-0.64 1.52,-0.96 2.64,-0.96 z m 306.94,0 h 17.24 c 2.07,0 3.11,0.87 3.11,2.63 0,0.64 -0.08,1.12 -0.24,1.44 l -52.19,160.65 c -0.64,1.92 -2,2.88 -4.07,2.88 h -22.03 c -2.08,0 -3.44,-0.96 -4.07,-2.88 l -51.72,-160.65 c -0.8,-2.72 0.16,-4.07 2.88,-4.07 h 16.99 c 2.08,0 3.44,0.96 4.08,2.87 l 8.38,26.82 c 0.31,0.63 0.71,0.95 1.19,0.95 h 66.8 c 0.48,0 0.88,-0.32 1.2,-0.95 l 8.38,-26.82 c 0.64,-1.91 1.99,-2.87 4.07,-2.87 z m -75.42,50.28 27.53,89.3 c 0.16,0.64 0.4,0.96 0.72,0.96 0.32,0 0.56,-0.32 0.72,-0.96 l 27.77,-89.3 c 0.32,-0.96 0,-1.44 -0.95,-1.44 h -54.83 c -0.8,0 -1.12,0.48 -0.96,1.44 z m 267.91,-50.28 h 16.29 c 2.07,0 3.11,0.8 3.11,2.39 l -0.48,1.92 -34,70.63 c -0.16,0.63 0.08,1.11 0.72,1.44 10.06,2.71 18.03,7.93 23.94,15.68 5.91,7.74 8.86,17.12 8.86,28.13 0,9.42 -2,17.72 -5.99,24.9 -3.99,7.18 -9.61,12.77 -16.87,16.76 -7.27,3.99 -15.69,5.99 -25.26,5.99 h -63.21 c -1.12,0 -2,-0.33 -2.64,-0.96 -0.64,-0.64 -0.95,-1.52 -0.95,-2.64 V 2015.2 c 0,-1.12 0.31,-2 0.95,-2.63 0.64,-0.64 1.52,-0.96 2.64,-0.96 h 15.8 c 1.11,0 1.99,0.32 2.63,0.96 0.64,0.63 0.96,1.51 0.96,2.63 v 69.67 c 0,0.8 0.4,1.2 1.2,1.2 h 33.76 c 0.63,0 1.11,-0.32 1.43,-0.96 l 33.04,-70.87 c 0.8,-1.76 2.16,-2.63 4.07,-2.63 z m -72.3,147.96 h 39.74 c 8.46,0 15.24,-2.55 20.35,-7.66 5.11,-5.11 7.67,-11.89 7.67,-20.35 0,-8.14 -2.6,-14.76 -7.79,-19.87 -5.18,-5.11 -11.93,-7.66 -20.23,-7.66 h -39.74 c -0.8,0 -1.2,0.39 -1.2,1.19 v 53.16 c 0,0.79 0.4,1.19 1.2,1.19 z m 208.54,-147.72 h 15.8 c 1.11,0 1.99,0.32 2.63,0.96 0.64,0.63 0.96,1.51 0.96,2.63 v 66.08 c 0,0.32 0.16,0.8 0.48,1.44 l 48.84,91.94 0.48,1.91 c 0,1.6 -0.96,2.4 -2.87,2.4 h -17.24 c -1.92,0 -3.35,-0.88 -4.31,-2.64 l -36.15,-68.71 c -0.48,-0.64 -0.96,-0.64 -1.44,0 l -36.15,68.71 c -0.8,1.76 -2.24,2.64 -4.31,2.64 h -17 c -2.08,0 -3.11,-0.88 -3.11,-2.64 0,-0.16 0.15,-0.72 0.48,-1.67 l 48.84,-91.94 c 0.32,-0.64 0.48,-1.12 0.48,-1.44 v -66.08 c 0,-1.12 0.31,-2 0.95,-2.63 0.64,-0.64 1.52,-0.96 2.64,-0.96 z m 295.21,-2.4 c 11.49,0 21.62,2.24 30.4,6.71 8.78,4.46 15.6,10.73 20.47,18.79 4.87,8.06 7.31,17.36 7.31,27.9 v 1.19 c 0,0.48 -1.2,0.88 -3.59,1.2 l -15.81,0.96 c -1.11,0.15 -1.99,0 -2.63,-0.48 -0.64,-0.48 -0.96,-1.2 -0.96,-2.16 0,-10.21 -3.19,-18.43 -9.57,-24.66 -6.39,-6.22 -14.93,-9.33 -25.62,-9.33 -10.7,0 -19.28,3.11 -25.74,9.33 -6.47,6.23 -9.7,14.45 -9.7,24.66 v 63.69 c 0,10.21 3.23,18.44 9.7,24.66 6.46,6.23 15.04,9.34 25.74,9.34 10.69,0 19.23,-3.11 25.62,-9.34 6.38,-6.22 9.57,-14.45 9.57,-24.66 v -1.44 c 0,-0.32 0.24,-0.64 0.72,-0.95 0.48,-0.32 1.12,-0.48 1.92,-0.48 h 0.95 l 15.81,0.96 c 2.39,0.31 3.59,1.27 3.59,2.87 0,10.53 -2.44,19.79 -7.31,27.77 -4.87,7.98 -11.69,14.17 -20.47,18.56 -8.78,4.39 -18.91,6.58 -30.4,6.58 -11.5,0 -21.67,-2.27 -30.53,-6.82 -8.86,-4.55 -15.72,-10.94 -20.59,-19.16 -4.87,-8.22 -7.3,-17.75 -7.3,-28.61 v -62.01 c 0,-10.85 2.43,-20.47 7.3,-28.85 4.87,-8.38 11.73,-14.84 20.59,-19.39 8.86,-4.55 19.03,-6.83 30.53,-6.83 z m 142.93,2.16 h 101.76 c 1.11,0 1.99,0.32 2.63,0.96 0.64,0.63 0.96,1.51 0.96,2.63 v 12.69 c 0,1.11 -0.32,1.99 -0.96,2.63 -0.64,0.64 -1.52,0.96 -2.63,0.96 h -81.17 c -0.8,0 -1.19,0.4 -1.19,1.2 v 142.93 c 0,1.12 -0.33,2 -0.96,2.64 -0.64,0.63 -1.52,0.96 -2.64,0.96 h -15.8 c -1.12,0 -2,-0.33 -2.63,-0.96 -0.64,-0.64 -0.96,-1.52 -0.96,-2.64 V 2015.2 c 0,-1.12 0.32,-2 0.96,-2.63 0.63,-0.64 1.51,-0.96 2.63,-0.96 z m 184.36,0 h 15.8 c 1.12,0 1.99,0.32 2.63,0.96 0.64,0.63 0.96,1.51 0.96,2.63 v 160.41 c 0,1.12 -0.32,2 -0.96,2.64 -0.64,0.63 -1.51,0.96 -2.63,0.96 h -15.8 c -1.12,0 -2,-0.33 -2.64,-0.96 -0.64,-0.64 -0.95,-1.52 -0.95,-2.64 V 2015.2 c 0,-1.12 0.31,-2 0.95,-2.63 0.64,-0.64 1.52,-0.96 2.64,-0.96 z m 110.13,0 h 15.8 c 1.12,0 2,0.32 2.64,0.96 0.63,0.63 0.96,1.51 0.96,2.63 l -0.24,117.56 c 0,0.63 0.15,0.99 0.47,1.08 0.32,0.07 0.64,-0.12 0.96,-0.6 L 5260.53,2014 c 0.95,-1.59 2.39,-2.39 4.31,-2.39 h 15.56 c 1.11,0 1.99,0.32 2.63,0.96 0.64,0.63 0.96,1.51 0.96,2.63 v 160.41 c 0,1.12 -0.32,2 -0.96,2.64 -0.64,0.63 -1.52,0.96 -2.63,0.96 h -15.8 c -1.12,0 -2,-0.33 -2.64,-0.96 -0.64,-0.64 -0.95,-1.52 -0.95,-2.64 v -116.83 c 0,-0.64 -0.16,-1 -0.48,-1.08 -0.32,-0.08 -0.64,0.12 -0.96,0.6 l -73.27,118.51 c -0.95,1.6 -2.39,2.4 -4.3,2.4 h -15.33 c -1.12,0 -2,-0.33 -2.63,-0.96 -0.64,-0.64 -0.96,-1.52 -0.96,-2.64 V 2015.2 c 0,-1.12 0.32,-2 0.96,-2.63 0.63,-0.64 1.51,-0.96 2.63,-0.96 z m 207.82,0 h 15.81 c 1.11,0 1.99,0.32 2.63,0.96 0.64,0.63 0.96,1.51 0.96,2.63 v 160.41 c 0,1.12 -0.32,2 -0.96,2.64 -0.64,0.63 -1.52,0.96 -2.63,0.96 h -15.81 c -1.12,0 -1.99,-0.33 -2.63,-0.96 -0.64,-0.64 -0.96,-1.52 -0.96,-2.64 V 2015.2 c 0,-1.12 0.32,-2 0.96,-2.63 0.64,-0.64 1.51,-0.96 2.63,-0.96 z m 160.42,-2.16 c 11.49,0 21.62,2.24 30.4,6.71 8.78,4.46 15.6,10.73 20.47,18.79 4.87,8.06 7.31,17.36 7.31,27.9 v 1.19 c 0,0.48 -1.2,0.88 -3.59,1.2 l -15.81,0.96 c -1.11,0.15 -1.99,0 -2.63,-0.48 -0.64,-0.48 -0.96,-1.2 -0.96,-2.16 0,-10.21 -3.19,-18.43 -9.57,-24.66 -6.39,-6.22 -14.93,-9.33 -25.62,-9.33 -10.7,0 -19.28,3.11 -25.74,9.33 -6.47,6.23 -9.7,14.45 -9.7,24.66 v 63.69 c 0,10.21 3.23,18.44 9.7,24.66 6.46,6.23 15.04,9.34 25.74,9.34 10.69,0 19.23,-3.11 25.62,-9.34 6.38,-6.22 9.57,-14.45 9.57,-24.66 v -1.44 c 0,-0.32 0.24,-0.64 0.72,-0.95 0.48,-0.32 1.12,-0.48 1.92,-0.48 h 0.95 l 15.81,0.96 c 2.39,0.31 3.59,1.27 3.59,2.87 0,10.53 -2.44,19.79 -7.31,27.77 -4.87,7.98 -11.69,14.17 -20.47,18.56 -8.78,4.39 -18.91,6.58 -30.4,6.58 -11.5,0 -21.67,-2.27 -30.53,-6.82 -8.86,-4.55 -15.72,-10.94 -20.59,-19.16 -4.87,-8.22 -7.3,-17.75 -7.3,-28.61 v -62.01 c 0,-10.85 2.43,-20.47 7.3,-28.85 4.87,-8.38 11.73,-14.84 20.59,-19.39 8.86,-4.55 19.03,-6.83 30.53,-6.83 z m 252.83,38.07 c 7.98,0 14.76,2.83 20.35,8.5 5.58,5.67 8.38,12.49 8.38,20.47 0,7.98 -2.8,14.73 -8.38,20.23 -5.59,5.51 -12.37,8.26 -20.35,8.26 -7.98,0 -14.81,-2.75 -20.47,-8.26 -5.67,-5.5 -8.5,-12.25 -8.5,-20.23 0,-7.98 2.83,-14.8 8.5,-20.47 5.66,-5.67 12.49,-8.5 20.47,-8.5 v 0"
         style="fill:#2b1f12;fill-opacity:1;fill-rule:nonzero;stroke:none"
         id="path22" /><path
         d="m 3894.51,3806.42 c 5.69,7.88 2.64,14.55 -2.49,21.22 -10.86,14.1 -14.31,31.19 -19.14,47.77 -6.69,22.98 -21.85,38.78 -43.39,48.4 -4.66,2.08 -5.34,4.86 -6.81,9.26 -5.31,15.84 -11.62,31.37 -18.37,46.65 -1.9,4.32 -7.15,4.35 -10.27,0.43 -3.21,-4.05 -6.34,-8.58 -7.9,-13.42 -3.69,-11.45 -6.38,-23.22 -9.61,-34.82 -0.39,-1.43 -1.73,-3.74 -2.48,-3.69 -1.81,0.13 -4.2,0.96 -5.17,2.34 -6.78,9.7 -20.5,66.45 -23.96,66.72 -1.73,0.13 -8.58,-14.63 -9.22,-17.91 -3.2,-16.45 -15.13,-33.33 -18,-49.84 -2.97,-17 -8.59,-29.42 0.05,-44.14 0.83,-1.43 0.4,-4.12 -0.33,-5.86 -6.01,-14.22 -7.41,-29.28 -8.55,-44.42 -2.28,-30.27 -1.19,-61.02 -11.42,-90.22 -4.52,-12.89 -10.11,-25.41 -15.39,-38.04 -6.09,-14.54 -6.16,-29.25 -3.93,-44.77 1.83,-12.8 0.73,-26.06 0.37,-39.11 -0.5,-18.08 -3.86,-35.73 -9.67,-52.87 -4.91,-14.52 -11.22,-28.55 -21.53,-39.92 -5.97,-6.58 -13.63,-11.98 -21.33,-16.55 -30.09,-17.82 -53.23,-42.63 -72.47,-71.25 -13.14,-19.54 -23.56,-40.54 -27.85,-64.02 -1.06,-5.81 -1.57,-11.76 -1.88,-17.67 -0.96,-17.91 -1.44,-21.68 -2.55,-39.58 -10.2,-0.36 -19.98,-0.7 -19.98,-0.7 0,0 -14.33,-1.99 -28.79,8.92 -14.6,11.03 -23.05,22.32 -26.93,39.69 -6.26,28.01 -0.36,52.65 12.19,77.12 12.85,25.04 30.07,46.24 48.15,67.67 30.5,36.14 54,76.41 63.07,123.6 4.86,25.3 3.47,50.59 -8.41,73.85 -12.47,24.41 -32.11,39.77 -60.37,43.19 -26.44,3.19 -50.82,-2.23 -73.08,-16.2 -22.4,-14.04 -35.72,-34.22 -37.79,-61.17 -2.33,-30.35 8.34,-56.74 24.77,-81.24 8.3,-12.37 20.43,-16.85 29.86,-11.47 9.39,5.35 13.9,14.44 14.35,24.8 0.64,14.41 -4.01,25.72 -18.01,33.61 -27.03,15.22 -28.32,41.54 -10.14,64.13 21.23,26.38 46.74,32.86 79.2,22.9 20.94,-6.43 32.88,-23.47 38.99,-43.95 7.49,-25.12 0.76,-46.22 -7.09,-70.17 -8.88,-27.07 -21.78,-51.95 -37.57,-75.42 -5.99,-8.9 -13.63,-17.4 -20.98,-25.23 -33.74,-31.47 -47.93,-65.62 -56.99,-106.61 -4.87,-22.05 0.05,-44.76 10.74,-65.2 8.98,-17.18 23.1,-29.67 40.35,-38.12 0,0 0,0 0.01,0 h 382.34 c -0.99,0.71 -2.01,1.38 -2.98,2.05 -0.44,0.31 0.3,3.15 1.17,4.29 1.75,2.29 3.95,4.23 6,6.27 4.55,4.56 6.03,9.26 2.63,15.53 -2.17,4 -3.34,8.82 -3.83,13.39 -1.34,12.45 -10.56,18.13 -19.62,24 -15.98,10.36 -28.22,24 -34.78,41.89 -3.95,10.78 -6.15,22.21 -9.34,34.07 -4.11,1.1 -10.53,1.66 -15.65,4.54 -3.79,2.13 -5.94,7.24 -8.72,11.1 -0.94,1.3 -1.26,3.14 -2.36,4.25 -5.69,5.71 -4.82,11.89 -1.8,18.42 3.35,7.26 7.06,14.41 9.71,21.92 7.58,21.45 23.42,34.48 43.17,43.83 4.07,1.92 8.07,3.98 12.05,6.08 0.97,0.51 2.3,1.32 2.48,2.19 1.24,6.02 2.16,12.09 3.29,18.13 2.78,14.87 4.85,30.13 13.86,42.76 4.1,5.74 2.91,12.08 8.25,13.88 -0.78,1.55 -1.39,2.96 -2.45,4.78 -8.94,15.28 -33.93,38.55 -44.28,52.95 -15.42,21.43 -24.19,45.38 -28.96,71.04 -0.48,2.59 -0.62,5.36 -0.23,7.95 0.77,5.11 2.88,8.87 9.18,8.8 14.93,-0.16 29.88,-0.9 44.51,3.75 2.39,0.76 6.07,-1.89 8.93,-3.39 8.04,-4.24 16.47,-8.43 25.4,-4.64 4.66,1.99 8.17,6.9 11.94,10.73 4.85,4.92 8.31,10.56 7.59,17.91 -0.09,0.94 -0.24,2.18 0.24,2.84"
         style="fill:#0a8c8a;fill-opacity:1;fill-rule:nonzero;stroke:none"
         id="path24" /></g></g></svg>
