<?xml version="1.0" encoding="UTF-8" standalone="no"?>
<svg
   xmlns:dc="http://purl.org/dc/elements/1.1/"
   xmlns:cc="http://creativecommons.org/ns#"
   xmlns:rdf="http://www.w3.org/1999/02/22-rdf-syntax-ns#"
   xmlns:svg="http://www.w3.org/2000/svg"
   xmlns="http://www.w3.org/2000/svg"
   xmlns:sodipodi="http://sodipodi.sourceforge.net/DTD/sodipodi-0.dtd"
   xmlns:inkscape="http://www.inkscape.org/namespaces/inkscape"
   width="164mm"
   height="49mm"
   viewBox="0 0 164 49"
   version="1.1"
   id="svg147"
   inkscape:version="1.0.1 (c497b03c, 2020-09-10)"
   sodipodi:docname="saskavet-logo-small.svg">
  <defs
     id="defs141" />
  <sodipodi:namedview
     id="base"
     pagecolor="#ffffff"
     bordercolor="#666666"
     borderopacity="1.0"
     inkscape:pageopacity="0.0"
     inkscape:pageshadow="2"
     inkscape:zoom="0.35"
     inkscape:cx="422.85714"
     inkscape:cy="620"
     inkscape:document-units="mm"
     inkscape:current-layer="layer1"
     inkscape:document-rotation="0"
     showgrid="false"
     inkscape:pagecheckerboard="false"
     width="840mm"
     inkscape:window-width="1252"
     inkscape:window-height="943"
     inkscape:window-x="0"
     inkscape:window-y="25"
     inkscape:window-maximized="0" />
  <metadata
     id="metadata144">
    <rdf:RDF>
      <cc:Work
         rdf:about="">
        <dc:format>image/svg+xml</dc:format>
        <dc:type
           rdf:resource="http://purl.org/dc/dcmitype/StillImage" />
        <dc:title></dc:title>
      </cc:Work>
    </rdf:RDF>
  </metadata>
  <g
     inkscape:label="Layer 1"
     inkscape:groupmode="layer"
     id="layer1">
    <path
       d="m 106.78294,32.955947 h 0.80186 l 6.04273,-16.581966 c 0.36266,-1.03117 0.76835,-1.746956 1.21708,-2.148064 0.44839,-0.400755 1.09291,-0.620183 1.93323,-0.658636 v -0.945093 h -5.81378 v 1.260124 l 2.20521,-0.114653 c -0.19085,0.382411 -0.46813,1.088319 -0.83044,2.119489 l -0.65863,1.83268 -2.52025,7.0739 -0.37218,1.030816 -1.05974,3.064581 h -0.0575 c -0.30551,-0.820914 -0.83044,-2.080683 -1.5748,-3.780367 l -0.74472,-1.746955 c -0.3436,-0.801864 -0.71155,-1.689806 -1.10278,-2.663472 -0.39159,-0.973667 -0.68263,-1.698978 -0.87348,-2.176639 l -0.74437,-1.832681 c -0.26776,-0.649111 -0.40111,-1.193094 -0.40111,-1.632655 0,-0.457906 0.14781,-0.806097 0.4438,-1.045281 0.29598,-0.238477 0.75918,-0.376766 1.38924,-0.415219 l 0.0286,-0.02857 v -0.945093 h -6.644229 v 1.260124 l 1.603727,-0.05715 c 0.13335,0.973666 0.543983,2.272241 1.231552,3.894666 z m 11.05464,-0.286456 h 14.77751 l 0.1718,-5.584824 h -0.97366 c 0,1.62313 -0.35349,2.763661 -1.05975,3.42265 -0.70661,0.658636 -1.7279,0.997655 -3.06423,1.016352 l -5.47017,0.08608 c 0.0575,-0.496358 0.0861,-1.240719 0.0861,-2.233789 v -6.558491 l 2.09056,-0.08573 0.88794,-0.02858 c 0.63006,0 1.12148,0.06209 1.47497,0.185914 0.35277,0.12453 0.61559,0.372533 0.7874,0.744714 0.1718,0.37218 0.25788,0.91193 0.25788,1.618191 h 0.94509 v -6.014147 h -1.26012 l 0.20037,2.462741 -5.38409,-0.02858 v -4.58223 c 0,-0.916517 0.0381,-1.589264 0.11465,-2.018947 0.0759,-0.429683 0.26705,-0.763411 0.57256,-1.002242 0.30515,-0.238478 0.80187,-0.367594 1.48943,-0.386644 l 2.46274,-0.0575 c 1.22167,-0.03775 2.1717,0.229305 2.84974,0.801864 0.67733,0.572911 1.01671,1.642533 1.01671,3.207808 h 0.94509 l -0.14325,-5.011913 h -13.77527 v 1.260124 l 2.06199,-0.114653 c -0.0575,0.572911 -0.0861,1.260122 -0.0861,2.061986 v 12.371916 c 0,0.974019 -0.0191,1.656644 -0.0572,2.047875 -0.0384,0.391583 -0.20038,0.73025 -0.48683,1.016706 -0.28646,0.286455 -0.76412,0.439208 -1.43193,0.458258 z m 22.19466,0 h 6.7303 v -1.260122 l -2.37702,0.1143 c 0.0572,-0.496005 0.0861,-1.250244 0.0861,-2.262364 l 0.0286,-15.607946 h 2.43417 c 0.97367,0 1.72297,0.176741 2.24825,0.529519 0.52493,0.353484 0.89712,0.887942 1.1169,1.604081 0.21907,0.715786 0.33866,1.675341 0.35807,2.877961 h 1.08796 l -0.1718,-6.042732 H 134.8775 l -0.1718,6.042732 h 1.05939 c 0,-1.718381 0.25294,-2.973564 0.75918,-3.765903 0.50553,-0.791986 1.35043,-1.188508 2.53435,-1.188508 l 2.94993,-0.02858 -0.0286,14.519627 v 0.887942 c 0,0.878416 -0.11959,1.52788 -0.35807,1.947333 -0.23883,0.420158 -0.7687,0.649464 -1.58962,0.687564 v 0.945091"
       style="fill:#2b1f12;fill-opacity:1;fill-rule:nonzero;stroke:none;stroke-width:0.0352777"
       id="path16" />
    <path
       d="m 19.062958,33.12775 c 1.393472,0 2.596444,-0.229306 3.608563,-0.687564 1.011767,-0.458258 1.780117,-1.097492 2.305403,-1.918758 0.524933,-0.820561 0.787753,-1.765653 0.787753,-2.835275 0,-1.126067 -0.277284,-2.076097 -0.830792,-2.849386 -0.553861,-0.773289 -1.226961,-1.398411 -2.018947,-1.876072 -0.792339,-0.476956 -1.837972,-1.011767 -3.135841,-1.603728 -1.145823,-0.534106 -2.033411,-0.983192 -2.663472,-1.345847 -0.630062,-0.362656 -1.164873,-0.820914 -1.603728,-1.374775 -0.439561,-0.553509 -0.658636,-1.212145 -0.658636,-1.975909 0,-0.954616 0.324202,-1.751541 0.973666,-2.39148 0.648759,-0.639586 1.546225,-0.959556 2.692047,-0.959556 1.565275,0 2.782359,0.5207 3.65125,1.561042 0.868539,1.040694 1.350433,2.315281 1.446389,3.823053 h 1.030817 v -6.300259 h -1.4605 l 0.114652,1.231195 c -0.725664,-0.534106 -1.522941,-0.911225 -2.39148,-1.131006 -0.868891,-0.219428 -1.732491,-0.329495 -2.591858,-0.329495 -1.431925,0 -2.582333,0.267758 -3.450872,0.801865 -0.868892,0.534811 -1.479904,1.184275 -1.832682,1.947333 -0.353836,0.764117 -0.529872,1.527881 -0.529872,2.291292 0,1.107369 0.267053,2.03835 0.801864,2.792236 0.534106,0.754591 1.178631,1.360311 1.93287,1.818569 0.754239,0.458258 1.770945,0.99307 3.050117,1.603728 1.126419,0.515408 2.0193,0.969433 2.677936,1.360311 0.658636,0.391583 1.212144,0.878417 1.660877,1.460853 0.448381,0.582436 0.6731,1.284111 0.6731,2.104672 0,1.107722 -0.396522,1.9812 -1.188508,2.620433 -0.792339,0.639939 -1.771297,0.959556 -2.935463,0.959556 -1.585031,0 -2.892425,-0.443795 -3.923595,-1.331736 C 14.2232,29.7051 13.659812,28.440744 13.56421,26.798564 h -1.116895 l 0.171803,6.09988 h 1.489429 l -0.143228,-1.231547 c 0.687211,0.477661 1.484136,0.840669 2.391481,1.088319 0.906286,0.248003 1.808691,0.372534 2.706158,0.372534 z m 7.789333,-0.458259 h 5.355519 v -1.260122 l -2.233789,0.1143 c 0.286456,-0.687211 0.524933,-1.345847 0.715786,-1.975908 0.381706,-1.260122 0.716139,-2.281414 1.002595,-3.064228 l 7.446081,-0.171802 1.002241,2.692047 c 0.190852,0.534458 0.286454,0.983544 0.286454,1.345847 0,0.897819 -0.563385,1.355725 -1.689804,1.374775 v 0.945091 h 6.558492 v -1.260122 l -1.947333,0.1143 c 0.01871,-0.381705 -0.04798,-0.873477 -0.200732,-1.474611 -0.153106,-0.601486 -0.334081,-1.159933 -0.543983,-1.675341 L 36.217129,12.078205 h -0.687211 l -5.899503,16.066206 -0.286455,0.801864 c -0.248356,0.706614 -0.463197,1.236486 -0.644525,1.589617 -0.181681,0.353483 -0.415219,0.639938 -0.701675,0.859013 -0.286103,0.219781 -0.668514,0.329495 -1.145469,0.329495 z m 5.269794,-7.417505 0.486833,-1.40335 1.546225,-4.353277 1.202972,-3.236031 h 0.05715 l 1.28905,3.522486 2.033059,5.470172 z m 21.106341,7.875764 c 1.393473,0 2.596444,-0.229306 3.608565,-0.687564 1.011767,-0.458258 1.780117,-1.097492 2.305402,-1.918758 0.524933,-0.820561 0.787752,-1.765653 0.787752,-2.835275 0,-1.126067 -0.277284,-2.076097 -0.830792,-2.849386 -0.55386,-0.773289 -1.22696,-1.398411 -2.018945,-1.876072 -0.79234,-0.476956 -1.837622,-1.011767 -3.135842,-1.603728 -1.145471,-0.534106 -2.033413,-0.983192 -2.663473,-1.345847 -0.63006,-0.362656 -1.164873,-0.820914 -1.603727,-1.374775 -0.439563,-0.553509 -0.658638,-1.212145 -0.658638,-1.975909 0,-0.954616 0.324205,-1.751541 0.973667,-2.39148 0.648758,-0.639586 1.546579,-0.959556 2.692048,-0.959556 1.565275,0 2.782358,0.5207 3.65125,1.561042 0.86854,1.040694 1.350785,2.315281 1.44639,3.823053 h 1.031168 v -6.300259 h -1.460852 l 0.114652,1.231195 c -0.725665,-0.534106 -1.52259,-0.911225 -2.391481,-1.131006 -0.868892,-0.219428 -1.732492,-0.329495 -2.591504,-0.329495 -1.431925,0 -2.582688,0.267758 -3.451225,0.801865 -0.868892,0.534811 -1.479905,1.184275 -1.832681,1.947333 -0.353484,0.764117 -0.529874,1.527881 -0.529874,2.291292 0,1.107369 0.267055,2.03835 0.801865,2.792236 0.534107,0.754591 1.178632,1.360311 1.933223,1.818569 0.753886,0.458258 1.770592,0.99307 3.049762,1.603728 1.126422,0.515408 2.0193,0.969433 2.677938,1.360311 0.658636,0.391583 1.212144,0.878417 1.660877,1.460853 0.448382,0.582436 0.6731,1.284111 0.6731,2.104672 0,1.107722 -0.396523,1.9812 -1.188508,2.620433 -0.79234,0.639939 -1.771298,0.959556 -2.935465,0.959556 -1.585029,0 -2.892425,-0.443795 -3.923593,-1.331736 -1.030817,-0.887942 -1.594202,-2.152298 -1.689452,-3.794478 h -1.117248 l 0.172156,6.09988 h 1.489075 l -0.14323,-1.231547 c 0.687213,0.477661 1.48449,0.840669 2.391482,1.088319 0.90664,0.248003 1.808692,0.372534 2.706158,0.372534 z m 9.53629,-0.458259 h 6.443837 v -1.260122 l -2.061985,0.1143 c 0.05715,-0.496005 0.08608,-1.250244 0.08608,-2.262364 V 22.93212 l 1.40335,-0.02858 c 0.305152,0.191205 0.625123,0.477308 0.959202,0.859013 0.333729,0.382412 0.73025,0.869245 1.188508,1.460853 l 3.436763,4.639381 c 1.431925,1.871486 2.395712,2.806699 2.892425,2.806699 h 3.49391 v -0.945091 c -0.477308,0 -0.88759,-0.06668 -1.231548,-0.200731 -0.343604,-0.13335 -0.7493,-0.419452 -1.217083,-0.859014 -0.468136,-0.438855 -1.055159,-1.126419 -1.761067,-2.061986 L 73.1893,24.335465 c -0.07655,-0.09525 -0.233892,-0.300567 -0.472369,-0.615598 -0.239183,-0.31503 -0.511175,-0.630061 -0.816327,-0.945091 -0.305506,-0.315031 -0.668515,-0.606073 -1.088321,-0.873478 l 2.8067,-4.467931 c 0.63006,-1.011761 1.231545,-1.784697 1.804103,-2.319508 0.572911,-0.534459 1.159934,-0.906639 1.761419,-1.116895 0.601488,-0.209902 1.341263,-0.35313 2.21968,-0.429683 v -0.945093 h -6.157384 v 1.174046 l 1.746954,-0.05715 c -0.649462,0.534811 -1.327502,1.336675 -2.03341,2.405591 l -3.57999,5.641975 h -2.14771 v -4.696883 c 0,-0.973667 0.01871,-1.655939 0.05715,-2.047522 0.0381,-0.391231 0.200377,-0.73025 0.486833,-1.016706 0.286457,-0.286455 0.76341,-0.438855 1.431925,-0.458258 v -0.945093 h -6.443837 v 1.260124 l 2.061985,-0.114653 c -0.05715,0.572911 -0.08572,1.260122 -0.08572,2.061986 v 12.371916 c 0,0.974019 -0.01939,1.656644 -0.05715,2.047875 -0.03881,0.391583 -0.200731,0.73025 -0.487185,1.016706 -0.286105,0.286455 -0.763765,0.439208 -1.431925,0.458258 z m 17.813512,0 h 5.355519 v -1.260122 l -2.233787,0.1143 c 0.286101,-0.687211 0.524578,-1.345847 0.715785,-1.975908 0.381706,-1.260122 0.71614,-2.281414 1.002241,-3.064228 l 7.446434,-0.171802 1.002241,2.692047 c 0.1905,0.534458 0.286457,0.983544 0.286457,1.345847 0,0.897819 -0.563388,1.355725 -1.689807,1.374775 v 0.945091 h 6.55814 v -1.260122 l -1.947333,0.1143 c 0.01871,-0.381705 -0.04798,-0.873477 -0.20038,-1.474611 -0.153103,-0.601486 -0.334433,-1.159933 -0.544335,-1.675341 L 89.943068,12.078205 h -0.687213 l -5.899854,16.066206 -0.286104,0.801864 c -0.248354,0.706614 -0.463196,1.236486 -0.644525,1.589617 -0.181679,0.353483 -0.415219,0.639938 -0.701675,0.859013 -0.286454,0.219781 -0.668512,0.329495 -1.145469,0.329495 z m 5.269442,-7.417505 0.486833,-1.40335 1.546577,-4.353277 1.202973,-3.236031 h 0.05715 l 1.288698,3.522486 2.03341,5.470172 H 85.84767"
       style="fill:#0a8c8a;fill-opacity:1;fill-rule:nonzero;stroke:none;stroke-width:0.0352777"
       id="path18" />
  </g>
</svg>
